<svg width="70" height="30" viewBox="0 0 70 30" fill="none" xmlns="http://www.w3.org/2000/svg">
<path d="M23.9325 13.0228C21.5767 12.3322 16.0575 12.003 12.8274 16.2109M12.8274 16.2109C9.59726 20.4189 11.4815 24.8713 12.8274 26.5715C14.138 25.1193 15.9728 21.0141 12.8274 16.2109ZM12.8274 16.2109C11.5877 14.5106 7.62054 11.4924 1.66979 13.0228" stroke="#342B20" stroke-width="1.36189"/>
<path d="M12.8275 3.42849C14.4833 5.12008 16.8015 9.49677 12.8275 13.4708C11.3044 11.6465 9.17199 7.08398 12.8275 3.42849Z" stroke="#342B20" stroke-width="1.36189"/>
<path d="M24.1743 21.5288C21.8726 22.0815 16.9266 21.8244 15.556 16.3739C17.9034 16.0033 22.9136 16.5152 24.1743 21.5288Z" stroke="#342B20" stroke-width="1.36189"/>
<path d="M10.1544 16.3978C7.85347 15.8417 2.90707 16.0918 1.52869 21.5403C3.87563 21.9144 8.88649 21.4095 10.1544 16.3978Z" stroke="#342B20" stroke-width="1.36189"/>
<path d="M34.5069 22.5V21.5695C35.2621 20.5041 36.2264 19.1285 37.3996 17.4428C38.5864 15.7435 40.0159 13.5655 41.6882 10.9088C41.877 10.5986 42.0725 10.2952 42.2748 9.9985C42.4906 9.68832 42.7266 9.38489 42.9828 9.0882L37.8244 9.16911C37.0288 9.19609 36.4286 9.47255 36.0241 9.9985C35.633 10.5245 35.4374 11.3673 35.4374 12.5271H34.7496L34.871 8.33973H44.9046V9.04774L37.6424 20.0725C37.3457 20.5041 37.0962 20.848 36.8939 21.1042C36.6916 21.3469 36.4826 21.5627 36.2668 21.7515L41.1825 21.6706C42.0725 21.6571 42.8143 21.3874 43.4076 20.8615C44.0145 20.322 44.3179 19.4859 44.3179 18.3531H45.0057L44.8844 22.5H34.5069ZM51.7693 22.8237C50.8388 22.8237 49.9959 22.6079 49.2407 22.1763C48.499 21.7313 47.9123 21.1109 47.4808 20.3153C47.0492 19.5061 46.8334 18.5554 46.8334 17.463C46.8334 16.519 47.0425 15.6356 47.4605 14.813C47.8921 13.9904 48.4922 13.3295 49.2609 12.8306C50.0296 12.3181 50.9197 12.0619 51.9311 12.0619C52.4976 12.0619 53.0235 12.1563 53.509 12.3451C54.008 12.5204 54.4463 12.7968 54.8239 13.1744C55.2015 13.5386 55.4982 14.0038 55.714 14.5702C55.9297 15.1232 56.0376 15.7772 56.0376 16.5325L48.917 16.6538C48.917 17.6788 49.0249 18.5823 49.2407 19.3645C49.47 20.1332 49.8341 20.7333 50.3331 21.1649C50.832 21.583 51.4726 21.792 52.2548 21.792C52.6729 21.792 53.0977 21.7178 53.5292 21.5695C53.9743 21.4211 54.3856 21.2188 54.7632 20.9626C55.1408 20.7064 55.4442 20.4232 55.6735 20.113L56.159 20.5176C55.7949 21.084 55.3566 21.5358 54.8441 21.8729C54.3316 22.2101 53.8057 22.4528 53.2663 22.6011C52.7268 22.7495 52.2278 22.8237 51.7693 22.8237ZM48.9777 15.8042H54.1361C54.1361 15.3187 54.0619 14.8535 53.9136 14.4084C53.7787 13.9499 53.5495 13.579 53.2258 13.2958C52.9021 12.9991 52.4773 12.8508 51.9514 12.8508C51.1692 12.8508 50.5151 13.0868 49.9892 13.5588C49.4767 14.0173 49.1395 14.7658 48.9777 15.8042ZM57.8378 22.5V21.8931C58.2559 21.8931 58.5459 21.792 58.7077 21.5897C58.8695 21.3739 58.9639 21.084 58.9909 20.7199C59.0179 20.3422 59.0314 19.9107 59.0314 19.4252L59.0516 14.813C59.0516 14.5972 59.0516 14.3814 59.0516 14.1657C59.0651 13.9499 59.092 13.7274 59.1325 13.4981C58.8898 13.5116 58.647 13.5251 58.4043 13.5386C58.175 13.5521 57.939 13.5655 57.6962 13.579V12.7294C58.2896 12.7294 58.7347 12.7024 59.0314 12.6485C59.3415 12.5946 59.5708 12.5271 59.7191 12.4462C59.8675 12.3653 59.9889 12.2776 60.0833 12.1832H60.6699C60.6834 12.2776 60.6901 12.3855 60.6901 12.5069C60.7036 12.6283 60.7171 12.7631 60.7306 12.9115C60.7441 13.0598 60.7508 13.2284 60.7508 13.4172C61.0475 13.161 61.3712 12.9317 61.7218 12.7294C62.0859 12.5271 62.4635 12.3653 62.8546 12.2439C63.2592 12.1225 63.657 12.0619 64.0481 12.0619C65.2214 12.0619 66.0778 12.4327 66.6172 13.1744C67.1567 13.9027 67.4264 15.0423 67.4264 16.5931V20.3557C67.4264 20.6254 67.4196 20.8682 67.4061 21.084C67.4061 21.2863 67.3859 21.502 67.3455 21.7313C67.5612 21.7178 67.7703 21.7111 67.9726 21.7111C68.1883 21.6976 68.4041 21.6841 68.6199 21.6706V22.5H64.4932V21.8931C64.9112 21.8931 65.2012 21.792 65.363 21.5897C65.5249 21.3739 65.6193 21.084 65.6462 20.7199C65.6732 20.3422 65.6867 19.9107 65.6867 19.4252V16.5931C65.6732 15.4333 65.4777 14.5568 65.1 13.9634C64.7359 13.37 64.156 13.08 63.3604 13.0935C62.8749 13.107 62.3961 13.2351 61.9241 13.4779C61.4656 13.7206 61.0812 14.0308 60.771 14.4084C60.7845 14.5163 60.7913 14.6377 60.7913 14.7725C60.7913 14.9074 60.7913 15.049 60.7913 15.1973L60.771 20.3557C60.771 20.6254 60.7643 20.8682 60.7508 21.084C60.7508 21.2863 60.7306 21.502 60.6901 21.7313C60.9059 21.7178 61.1149 21.7111 61.3172 21.7111C61.533 21.6976 61.7488 21.6841 61.9646 21.6706V22.5H57.8378Z" fill="#342B20"/>
</svg>
